<svg width="32" height="19" viewBox="0 0 32 19" fill="none" xmlns="http://www.w3.org/2000/svg">
<path d="M31.3543 18.8627C31.3682 18.8599 31.3818 18.8562 31.3955 18.8526C31.4071 18.8497 31.4189 18.8472 31.4303 18.8437C31.4437 18.8396 31.4568 18.8346 31.4698 18.8299C31.4814 18.8257 31.493 18.8219 31.5045 18.8171C31.5168 18.812 31.5287 18.806 31.5406 18.8003C31.5523 18.7948 31.5642 18.7896 31.5756 18.7834C31.5871 18.7773 31.5979 18.7704 31.609 18.7637C31.6204 18.7569 31.632 18.7505 31.6431 18.743C31.655 18.7351 31.666 18.7263 31.6775 18.7177C31.6871 18.7106 31.6969 18.7038 31.7064 18.6961C31.7237 18.6819 31.7402 18.6667 31.7562 18.6511C31.7591 18.6483 31.7622 18.6459 31.7651 18.6431C31.7681 18.6401 31.7707 18.6367 31.7736 18.6336C31.789 18.6178 31.8039 18.6015 31.8181 18.5844C31.8263 18.5744 31.8335 18.5639 31.8412 18.5535C31.8491 18.5428 31.8574 18.5324 31.8648 18.5213C31.8727 18.5094 31.8797 18.4971 31.887 18.4849C31.8931 18.4747 31.8996 18.4646 31.9053 18.454C31.9119 18.4417 31.9174 18.429 31.9233 18.4165C31.9286 18.4053 31.9341 18.3943 31.939 18.3829C31.9441 18.3706 31.9482 18.358 31.9526 18.3455C31.957 18.3333 31.9617 18.3212 31.9655 18.3088C31.9693 18.2962 31.9721 18.2834 31.9753 18.2705C31.9784 18.2579 31.9821 18.2455 31.9845 18.2328C31.9875 18.2177 31.9893 18.2025 31.9915 18.1873C31.993 18.1766 31.995 18.166 31.9961 18.1552C31.9988 18.1286 32.0002 18.1019 32.0002 18.0752V0.924173C32.0002 0.480923 31.641 0.121765 31.1977 0.121765H5.92189C5.91483 0.121765 5.90798 0.12262 5.90092 0.122834C5.88562 0.123262 5.87043 0.123905 5.85523 0.125188C5.84314 0.126151 5.83116 0.127543 5.81918 0.129147C5.80548 0.130859 5.7919 0.132892 5.77831 0.135352C5.76558 0.137599 5.75295 0.140274 5.74044 0.143162C5.7277 0.146158 5.71497 0.149368 5.70235 0.153006C5.68983 0.156536 5.67753 0.160387 5.66533 0.164453C5.65281 0.168732 5.6403 0.173226 5.62799 0.178148C5.61633 0.182748 5.60488 0.187455 5.59354 0.19259C5.58092 0.198261 5.5684 0.20436 5.55599 0.210672C5.5454 0.216128 5.53502 0.221692 5.52475 0.227576C5.51234 0.234637 5.50014 0.242126 5.48805 0.249829C5.4781 0.256249 5.46837 0.262882 5.45874 0.269622C5.4474 0.277646 5.43616 0.285991 5.42514 0.294764C5.41509 0.302788 5.40524 0.311026 5.39551 0.319478C5.38588 0.327931 5.37636 0.336382 5.36705 0.345369C5.35646 0.355533 5.34629 0.366125 5.33624 0.376823C5.33121 0.382173 5.32586 0.386881 5.32104 0.392337C5.31816 0.395547 5.31591 0.399078 5.31313 0.402287C5.30307 0.413949 5.29365 0.426145 5.28424 0.438449C5.27739 0.447436 5.27033 0.456423 5.26391 0.465623C5.25557 0.477606 5.24786 0.48991 5.24016 0.502321C5.23385 0.512484 5.22732 0.522541 5.22155 0.532919C5.21481 0.544901 5.20892 0.557205 5.20282 0.569509C5.19726 0.580742 5.19148 0.591976 5.18645 0.603424C5.18121 0.615514 5.17661 0.628031 5.17201 0.640335C5.16741 0.652424 5.1627 0.664407 5.15874 0.676603C5.15479 0.688907 5.15158 0.701424 5.14815 0.713942C5.14473 0.726781 5.14109 0.739512 5.1382 0.752458C5.13553 0.764547 5.13371 0.776851 5.13157 0.789048C5.12921 0.802956 5.12686 0.816865 5.12515 0.830773C5.12376 0.842328 5.12312 0.854096 5.12226 0.865864C5.12119 0.880843 5.12023 0.895822 5.12001 0.910907C5.11991 0.915293 5.11937 0.919573 5.11937 0.92396V5.87236C5.11937 6.31561 5.47853 6.67477 5.92178 6.67477C6.36503 6.67477 6.72419 6.31561 6.72419 5.87236V2.70605L13.8582 9.02229C13.821 9.0485 13.7852 9.0775 13.7518 9.11077L6.72408 16.1385V10.8653C6.72408 10.422 6.36492 10.0629 5.92167 10.0629C5.47842 10.0629 5.11927 10.422 5.11927 10.8653V11.8457H0.97349C0.530239 11.8457 0.171082 12.2049 0.171082 12.6481C0.171082 13.0914 0.530239 13.4505 0.97349 13.4505H5.11927V18.0757C5.11927 18.519 5.47842 18.8781 5.92167 18.8781H31.1975C31.224 18.8781 31.2504 18.8767 31.2767 18.8742C31.289 18.873 31.3009 18.8706 31.313 18.8689C31.3269 18.867 31.3406 18.8654 31.3543 18.8627ZM30.3952 16.1386L23.3674 9.11088C23.3629 9.10638 23.3581 9.10264 23.3535 9.09836L28.6369 4.61589C28.9748 4.32917 29.0163 3.8229 28.7295 3.48493C28.443 3.14717 27.9368 3.10544 27.5986 3.39227L18.5708 11.0515L8.03853 1.72669H30.3952V16.1386ZM14.8867 10.2458C14.944 10.1886 14.9904 10.1248 15.0267 10.057L18.0278 12.714C18.1795 12.8483 18.3695 12.9157 18.5597 12.9157C18.7444 12.9157 18.9289 12.8522 19.0789 12.7251L22.1374 10.1303C22.1652 10.1709 22.1965 10.2097 22.2326 10.2458L29.2603 17.2735H7.85901L14.8867 10.2458Z" fill="white"/>
</svg>
